# Exported from Wings 3D 1.2
mtllib cube8.mtl
o cube1
#8 vertices, 12 faces
v -4.00000000 -4.00000000 4.00000000
v -4.00000000 4.00000000 4.00000000
v 4.00000000 4.00000000 4.00000000
v 4.00000000 -4.00000000 4.00000000
v -4.00000000 -4.00000000 -4.00000000
v -4.00000000 4.00000000 -4.00000000
v 4.00000000 4.00000000 -4.00000000
v 4.00000000 -4.00000000 -4.00000000
vt 0.0000000e+0 0.66666667
vt 0.0000000e+0 1.00000000
vt 3.6082248e-16 0.33333333
vt 5.5511151e-16 0.66666667
vt 0.33333333 1.00000000
vt 0.33333333 0.66666667
vt 0.33333333 1.00000000
vt 0.33333333 3.3306691e-16
vt 0.33333333 0.33333333
vt 0.33333333 0.66666667
vt 0.66666667 5.5511151e-17
vt 0.66666667 0.33333333
vt 0.66666667 0.66666667
vt 0.66666667 1.00000000
vt 1.00000000 0.33333333
vt 1.00000000 0.66666667
vn 1.00000000 0.00000000 0.00000000
vn -1.00000000 0.00000000 0.00000000
vn 0.00000000 1.00000000 0.00000000
vn 0.00000000 -1.00000000 0.00000000
vn 0.00000000 0.00000000 1.00000000
vn 0.00000000 0.00000000 -1.00000000
g cube1_cube1_auv
usemtl cube1_auv
s 1
f 1/9/5 3/13/5 2/10/5
f 1/9/2 6/4/2 5/3/2
f 1/9/4 8/11/4 4/12/4
f 2/10/2 6/4/2 1/9/2
f 3/13/3 6/7/3 2/10/3
f 3/13/1 8/15/1 7/16/1
f 4/12/5 3/13/5 1/9/5
f 4/12/1 8/15/1 3/13/1
f 5/8/4 8/11/4 1/9/4
f 6/1/6 8/5/6 5/2/6
f 7/14/3 6/7/3 3/13/3
f 7/6/6 8/5/6 6/1/6
