# Blender v2.62 (sub 0) OBJ File: ''
# www.blender.org
mtllib untitled.mtl
o Mesh_Mesh_Cylinder
v 0.000000 0.500000 -0.500000
v 0.097545 0.500000 -0.490393
v 0.097546 0.750000 -0.490392
v 0.000001 0.750000 -0.500000
v 0.191342 0.500000 -0.461940
v 0.191343 0.750000 -0.461939
v 0.277785 0.500000 -0.415735
v 0.277786 0.750000 -0.415734
v 0.353553 0.500000 -0.353553
v 0.353554 0.750000 -0.353553
v 0.415735 0.500000 -0.277785
v 0.415735 0.750000 -0.277784
v 0.461940 0.500000 -0.191342
v 0.461940 0.750000 -0.191341
v 0.490393 0.500000 -0.097545
v 0.490393 0.750000 -0.097544
v 0.500000 0.500000 0.000000
v 0.500000 0.750000 0.000001
v 0.490393 0.500000 0.097545
v 0.490392 0.750000 0.097546
v 0.461940 0.500000 0.191342
v 0.461940 0.750000 0.191342
v 0.415735 0.500000 0.277785
v 0.415734 0.750000 0.277786
v 0.353553 0.500000 0.353553
v 0.353553 0.750000 0.353554
v 0.277785 0.500000 0.415735
v 0.277785 0.750000 0.415735
v 0.191342 0.500000 0.461940
v 0.191342 0.750000 0.461940
v 0.097545 0.500000 0.490393
v 0.097545 0.750000 0.490393
v 0.000000 0.500000 0.500000
v 0.000000 0.750000 0.500000
v -0.097545 0.500000 0.490393
v -0.097545 0.750000 0.490393
v -0.191342 0.500000 0.461940
v -0.191341 0.750000 0.461940
v -0.277785 0.500000 0.415735
v -0.277784 0.750000 0.415735
v -0.353554 0.500000 0.353553
v -0.353552 0.750000 0.353554
v -0.415735 0.500000 0.277785
v -0.415734 0.750000 0.277786
v -0.461940 0.500000 0.191341
v -0.461939 0.750000 0.191343
v -0.490393 0.500000 0.097545
v -0.490392 0.750000 0.097547
v -0.500000 0.500000 0.000000
v -0.500000 0.750000 0.000002
v -0.490393 0.500000 -0.097546
v -0.490393 0.750000 -0.097543
v -0.461940 0.500000 -0.191342
v -0.461941 0.750000 -0.191339
v -0.415734 0.500000 -0.277786
v -0.415736 0.750000 -0.277783
v -0.353553 0.500000 -0.353554
v -0.353555 0.750000 -0.353551
v -0.277785 0.500000 -0.415735
v -0.277788 0.750000 -0.415733
v -0.191341 0.500000 -0.461940
v -0.191345 0.750000 -0.461939
v -0.097544 0.500000 -0.490393
v -0.097549 0.750000 -0.490392
v 0.413362 0.773127 0.277002
v -0.311131 0.802821 0.093927
v 0.191037 0.773127 -0.459459
v 0.488161 0.773127 -0.096421
v -0.459969 0.773127 0.189806
v 0.351379 0.773127 0.352322
v -0.251503 0.802821 0.205842
v -0.152822 0.802821 -0.286828
v 0.277002 0.773127 -0.413362
v 0.275893 0.773127 0.414103
v -0.250953 0.802821 -0.206513
v 0.097730 0.773127 -0.487900
v 0.152820 0.802821 0.286829
v 0.094759 0.802821 -0.310879
v 0.093926 0.802821 0.311132
v 0.352322 0.773127 -0.351379
v 0.000665 0.773127 -0.497592
v 0.250952 0.802821 0.206514
v -0.497592 0.773127 -0.000664
v 0.205841 0.802821 0.251505
v -0.286829 0.802821 0.152821
v -0.191035 0.773127 0.459461
v -0.286420 0.802821 -0.153586
v -0.206513 0.802821 0.250952
v -0.323392 0.802821 -0.032287
v 0.497592 0.773127 0.000667
v -0.414101 0.773127 0.275894
v 0.286829 0.802821 -0.152819
v -0.459461 0.773127 -0.191033
v 0.311132 0.802821 -0.093926
v -0.031425 0.802821 -0.323477
v 0.206514 0.802821 -0.250952
v 0.189805 0.773127 0.459970
v 0.251505 0.802821 -0.205841
v -0.153587 0.802821 0.286419
v -0.032288 0.802821 0.323392
v -0.351381 0.773127 -0.352319
v -0.310879 0.802821 -0.094757
v -0.323477 0.802821 0.031424
v -0.487901 0.773127 -0.097726
v 0.310879 0.802821 0.094759
v 0.286419 0.802821 0.153588
v 0.323478 0.802821 -0.031422
v 0.323392 0.802821 0.032289
v -0.413364 0.773127 -0.276999
v -0.094759 0.802821 0.310879
v -0.097728 0.773127 0.487901
v 0.031423 0.802821 0.323478
v -0.096426 0.773127 -0.488160
v 0.459460 0.773127 0.191036
v 0.032289 0.802821 -0.323392
v 0.153588 0.802821 -0.286418
v -0.488160 0.773127 0.096424
v -0.352320 0.773127 0.351380
v 0.459970 0.773127 -0.189804
v 0.487901 0.773127 0.097730
v -0.275896 0.773127 -0.414101
v -0.000666 0.773127 0.497592
v 0.096422 0.773127 0.488161
v -0.093928 0.802821 -0.311131
v -0.277000 0.773127 0.413363
v 0.414103 0.773127 -0.275893
v -0.205842 0.802821 -0.251503
v -0.189808 0.773127 -0.459969
v 0.229809 0.500000 0.229809
v -0.438837 0.500000 0.234563
v -0.318755 0.500000 -0.063405
v -0.234563 0.500000 0.438838
v -0.438837 0.500000 -0.234564
v 0.270228 0.500000 0.180560
v 0.384644 0.500000 0.315669
v -0.325000 0.500000 0.000000
v 0.495197 0.500000 0.048773
v -0.144442 0.500000 -0.476166
v 0.315669 0.500000 0.384644
v 0.234563 0.500000 0.438838
v 0.300261 0.500000 0.124372
v -0.048772 0.500000 -0.495196
v 0.315669 0.500000 -0.384644
v -0.318755 0.500000 0.063404
v -0.384645 0.500000 0.315669
v -0.495197 0.500000 0.048773
v 0.318755 0.500000 0.063404
v -0.144443 0.500000 0.476167
v 0.234563 0.500000 -0.438837
v -0.300261 0.500000 0.124372
v 0.476166 0.500000 0.144444
v 0.325000 0.500000 0.000000
v -0.476166 0.500000 -0.144444
v -0.270228 0.500000 0.180560
v 0.048772 0.500000 -0.495196
v 0.495197 0.500000 -0.048772
v 0.318755 0.500000 -0.063404
v -0.384643 0.500000 -0.315670
v -0.229810 0.500000 0.229809
v 0.144443 0.500000 0.476167
v 0.000000 0.500000 -0.325000
v 0.438837 0.500000 0.234564
v 0.300261 0.500000 -0.124372
v -0.315669 0.500000 -0.384644
v -0.180560 0.500000 0.270228
v 0.438837 0.500000 -0.234563
v -0.048772 0.500000 0.495197
v 0.270228 0.500000 -0.180560
v -0.124372 0.500000 0.300261
v 0.476166 0.500000 -0.144443
v -0.063404 0.500000 -0.318755
v 0.384644 0.500000 -0.315669
v 0.229809 0.500000 -0.229809
v 0.144443 0.500000 -0.476166
v -0.063404 0.500000 0.318755
v -0.315670 0.500000 0.384644
v -0.124372 0.500000 -0.300261
v 0.180560 0.500000 -0.270228
v 0.000000 0.500000 0.325000
v -0.180560 0.500000 -0.270228
v -0.476166 0.500000 0.144443
v 0.124372 0.500000 -0.300261
v 0.048772 0.500000 0.495197
v 0.063404 0.500000 0.318755
v -0.229809 0.500000 -0.229810
v 0.124372 0.500000 0.300261
v -0.270227 0.500000 -0.180561
v 0.063404 0.500000 -0.318755
v -0.495197 0.500000 -0.048773
v 0.180560 0.500000 0.270228
v -0.234563 0.500000 -0.438837
v -0.300261 0.500000 -0.124372
vt 0.000000 0.000000
vn 0.033011 0.985775 -0.164797
vn -0.193840 0.949062 -0.248410
vn 0.999781 -0.009920 0.018439
vn 0.064526 0.985775 -0.155191
vn -0.141653 0.949062 -0.281454
vn 0.976974 -0.009906 0.213129
vn 0.093562 0.985775 -0.139620
vn -0.084023 0.949062 -0.303681
vn 0.916620 -0.009926 0.399637
vn 0.119003 0.985775 -0.118685
vn -0.023164 0.949062 -0.314238
vn 0.821042 -0.009928 0.570782
vn 0.139872 0.985775 -0.093186
vn 0.038587 0.949062 -0.312718
vn 0.693915 -0.009911 0.719989
vn 0.155363 0.985775 -0.064110
vn 0.098853 0.949062 -0.299183
vn 0.540116 -0.009923 0.841532
vn 0.164885 0.985775 -0.032568
vn 0.155322 0.949062 -0.274147
vn 0.365567 -0.009906 0.930732
vn 0.168070 0.985775 0.000226
vn 0.205821 0.949062 -0.238579
vn 0.176961 -0.009922 0.984168
vn 0.164797 0.985775 0.033011
vn 0.248410 0.949062 -0.193840
vn -0.018439 -0.009918 0.999781
vn 0.155192 0.985775 0.064525
vn 0.281454 0.949061 -0.141655
vn -0.213134 -0.009930 0.976973
vn 0.139620 0.985775 0.093564
vn 0.303681 0.949062 -0.084022
vn -0.399629 -0.009892 0.916624
vn 0.118685 0.985775 0.119003
vn 0.314238 0.949061 -0.023164
vn -0.570781 -0.009923 0.821042
vn 0.093188 0.985775 0.139871
vn 0.312719 0.949062 0.038586
vn -0.719991 -0.009925 0.693913
vn 0.064110 0.985775 0.155363
vn 0.299183 0.949062 0.098852
vn -0.841531 -0.009921 0.540118
vn 0.032568 0.985775 0.164885
vn 0.274148 0.949062 0.155321
vn -0.930732 -0.009903 0.365569
vn -0.000226 0.985775 0.168070
vn 0.238579 0.949062 0.205820
vn -0.984167 -0.009918 0.176964
vn -0.033009 0.985775 0.164797
vn 0.193842 0.949062 0.248410
vn -0.999781 -0.009916 -0.018437
vn -0.064526 0.985775 0.155191
vn 0.141655 0.949062 0.281453
vn -0.976973 -0.009924 -0.213131
vn -0.093562 0.985775 0.139620
vn 0.084024 0.949062 0.303681
vn -0.916622 -0.009919 -0.399632
vn -0.119003 0.985775 0.118685
vn 0.023165 0.949062 0.314238
vn -0.821045 -0.009920 -0.570777
vn -0.139870 0.985775 0.093190
vn -0.038585 0.949062 0.312719
vn -0.693919 -0.009906 -0.719985
vn -0.155363 0.985775 0.064111
vn -0.098852 0.949062 0.299183
vn -0.540120 -0.009922 -0.841530
vn -0.164885 0.985775 0.032569
vn -0.155320 0.949062 0.274150
vn -0.365568 -0.009924 -0.930732
vn -0.168071 0.985775 -0.000224
vn -0.205819 0.949062 0.238580
vn -0.176970 -0.009915 -0.984166
vn -0.164797 0.985775 -0.033009
vn -0.248409 0.949062 0.193842
vn 0.018433 -0.009919 -0.999781
vn -0.155191 0.985775 -0.064525
vn -0.281453 0.949062 0.141657
vn 0.213129 -0.009933 -0.976974
vn -0.139621 0.985775 -0.093561
vn -0.303679 0.949062 0.084024
vn 0.399625 -0.009903 -0.916625
vn -0.118685 0.985775 -0.119003
vn -0.314238 0.949062 0.023166
vn 0.570775 -0.009925 -0.821047
vn -0.093190 0.985775 -0.139869
vn -0.312720 0.949061 -0.038583
vn 0.719986 -0.009928 -0.693918
vn -0.064112 0.985775 -0.155362
vn -0.299183 0.949062 -0.098851
vn 0.841526 -0.009915 -0.540125
vn -0.032569 0.985775 -0.164885
vn -0.274149 0.949062 -0.155319
vn 0.930731 -0.009930 -0.365570
vn 0.000225 0.985775 -0.168071
vn -0.238574 0.949063 -0.205821
vn 0.984163 -0.009810 -0.176995
vn -0.073111 0.000003 -0.997324
vn -0.364775 0.106784 -0.924952
vn -0.266276 -0.000000 -0.963897
vn -0.538288 0.106809 -0.835965
vn -0.449210 0.000002 -0.893426
vn -0.691058 0.106823 -0.714862
vn -0.614878 0.000005 -0.788622
vn -0.817253 0.106831 -0.566290
vn -0.756912 0.000002 -0.653517
vn -0.912004 0.106809 -0.396031
vn -0.869863 0.000002 -0.493294
vn -0.971740 0.106807 -0.210507
vn -0.949386 0.000004 -0.314111
vn -0.994135 0.106822 -0.016842
vn -0.992424 0.000001 -0.122862
vn -0.978324 0.106814 0.177408
vn -0.997324 0.000003 0.073113
vn -0.924910 0.106820 0.364872
vn -0.963897 0.000002 0.266274
vn -0.835961 0.106816 0.538294
vn -0.893429 0.000002 0.449204
vn -0.714887 0.106815 0.691034
vn -0.788625 0.000004 0.614874
vn -0.566330 0.106818 0.817227
vn -0.653518 0.000003 0.756911
vn -0.396030 0.106813 0.912004
vn -0.493297 0.000002 0.869861
vn -0.210519 0.106806 0.971738
vn -0.314118 -0.000000 0.949384
vn -0.016894 0.106806 0.994136
vn -0.122863 -0.000000 0.992424
vn 0.177413 0.106818 0.978322
vn 0.073106 -0.000000 0.997324
vn 0.364825 0.106804 0.924930
vn 0.266272 -0.000000 0.963898
vn 0.538271 0.106808 0.835977
vn 0.449204 -0.000000 0.893429
vn 0.691035 0.106815 0.714886
vn 0.616506 0.008974 0.787299
vn 0.653223 0.000000 -0.757166
vn 0.758255 0.008973 0.651896
vn 0.493006 0.000004 -0.870026
vn 0.870862 0.008975 0.491445
vn 0.314057 0.000005 -0.949404
vn 0.950007 0.008976 0.312099
vn 0.122449 0.000000 -0.992475
vn 0.992640 0.008977 0.120771
vn -0.073408 0.000004 -0.997302
vn 0.997128 0.008974 -0.075205
vn -0.266589 0.000004 -0.963810
vn 0.963296 0.008976 -0.268292
vn -0.449362 0.000004 -0.893350
vn 0.892445 0.008977 -0.451067
vn -0.615135 0.000003 -0.788421
vn 0.787301 0.008976 -0.616504
vn -0.757073 0.000003 -0.653330
vn 0.651897 0.008973 -0.758255
vn -0.870048 0.000004 -0.492967
vn 0.491444 0.008976 -0.870863
vn -0.949493 0.000005 -0.313788
vn 0.312103 0.008978 -0.950006
vn -0.992445 0.000004 -0.122693
vn 0.120772 0.008977 -0.992640
vn -0.997301 0.000004 0.073425
vn -0.000000 -1.000000 0.000000
vn -0.000000 -1.000000 -0.000001
vn -0.098014 0.000001 -0.995185
vn -0.098015 0.000001 -0.995185
vn -0.290285 -0.000002 -0.956940
vn -0.471394 -0.000004 -0.881922
vn -0.471394 -0.000004 -0.881923
vn -0.634392 -0.000001 -0.773011
vn -0.773011 0.000002 -0.634392
vn -0.773012 0.000002 -0.634392
vn -0.881918 -0.000001 -0.471403
vn -0.881918 -0.000001 -0.471402
vn -0.956940 -0.000000 -0.290287
vn -0.956939 -0.000000 -0.290288
vn -0.995185 0.000001 -0.098013
vn -0.995185 0.000001 -0.098012
vn -0.995185 -0.000001 0.098013
vn -0.995185 -0.000001 0.098014
vn -0.956939 0.000002 0.290288
vn -0.956940 0.000001 0.290287
vn -0.881922 -0.000000 0.471394
vn -0.881923 -0.000000 0.471394
vn -0.773011 0.000001 0.634392
vn -0.634393 0.000002 0.773010
vn -0.471399 0.000002 0.881920
vn -0.290285 0.000001 0.956940
vn -0.098014 -0.000000 0.995185
vn -0.098013 0.000000 0.995185
vn 0.098013 -0.000000 0.995185
vn 0.098014 0.000000 0.995185
vn 0.290285 -0.000000 0.956940
vn 0.471399 -0.000000 0.881920
vn 0.634398 -0.000003 0.773006
vn 0.773006 0.000001 0.634398
vn 0.881920 -0.000000 0.471399
vn 0.956940 0.000003 0.290285
vn 0.995185 -0.000000 0.098014
vn 0.995185 -0.000000 0.098013
vn 0.995185 0.000001 -0.098013
vn 0.995185 0.000000 -0.098014
vn 0.956940 0.000001 -0.290285
vn 0.881920 0.000002 -0.471399
vn 0.773006 -0.000003 -0.634398
vn 0.634398 0.000001 -0.773006
vn 0.471399 0.000002 -0.881920
vn 0.290285 0.000003 -0.956940
vn 0.098014 -0.000000 -0.995185
vn 0.098013 -0.000000 -0.995185
usemtl 
s off
f 78/1/1 76/1/1 115/1/1
f 4/1/2 115/1/2 76/1/2
f 76/1/3 78/1/3 3/1/3
f 116/1/4 67/1/4 78/1/4
f 3/1/5 78/1/5 67/1/5
f 67/1/6 116/1/6 6/1/6
f 96/1/7 73/1/7 116/1/7
f 6/1/8 116/1/8 73/1/8
f 73/1/9 96/1/9 8/1/9
f 98/1/10 80/1/10 96/1/10
f 8/1/11 96/1/11 80/1/11
f 80/1/12 98/1/12 10/1/12
f 92/1/13 126/1/13 98/1/13
f 10/1/14 98/1/14 126/1/14
f 126/1/15 92/1/15 12/1/15
f 94/1/16 119/1/16 92/1/16
f 12/1/17 92/1/17 119/1/17
f 119/1/18 94/1/18 14/1/18
f 107/1/19 68/1/19 94/1/19
f 14/1/20 94/1/20 68/1/20
f 68/1/21 107/1/21 16/1/21
f 108/1/22 90/1/22 107/1/22
f 16/1/23 107/1/23 90/1/23
f 90/1/24 108/1/24 18/1/24
f 105/1/25 120/1/25 108/1/25
f 18/1/26 108/1/26 120/1/26
f 120/1/27 105/1/27 20/1/27
f 106/1/28 114/1/28 105/1/28
f 20/1/29 105/1/29 114/1/29
f 114/1/30 106/1/30 22/1/30
f 82/1/31 65/1/31 106/1/31
f 22/1/32 106/1/32 65/1/32
f 65/1/33 82/1/33 24/1/33
f 84/1/34 70/1/34 82/1/34
f 24/1/35 82/1/35 70/1/35
f 70/1/36 84/1/36 26/1/36
f 77/1/37 74/1/37 84/1/37
f 26/1/38 84/1/38 74/1/38
f 74/1/39 77/1/39 28/1/39
f 79/1/40 97/1/40 77/1/40
f 28/1/41 77/1/41 97/1/41
f 97/1/42 79/1/42 30/1/42
f 112/1/43 123/1/43 79/1/43
f 30/1/44 79/1/44 123/1/44
f 123/1/45 112/1/45 32/1/45
f 100/1/46 122/1/46 112/1/46
f 32/1/47 112/1/47 122/1/47
f 122/1/48 100/1/48 34/1/48
f 110/1/49 111/1/49 100/1/49
f 34/1/50 100/1/50 111/1/50
f 111/1/51 110/1/51 36/1/51
f 99/1/52 86/1/52 110/1/52
f 36/1/53 110/1/53 86/1/53
f 86/1/54 99/1/54 38/1/54
f 88/1/55 125/1/55 99/1/55
f 38/1/56 99/1/56 125/1/56
f 125/1/57 88/1/57 40/1/57
f 71/1/58 118/1/58 88/1/58
f 40/1/59 88/1/59 118/1/59
f 118/1/60 71/1/60 42/1/60
f 85/1/61 91/1/61 71/1/61
f 42/1/62 71/1/62 91/1/62
f 91/1/63 85/1/63 44/1/63
f 66/1/64 69/1/64 85/1/64
f 44/1/65 85/1/65 69/1/65
f 69/1/66 66/1/66 46/1/66
f 103/1/67 117/1/67 66/1/67
f 46/1/68 66/1/68 117/1/68
f 117/1/69 103/1/69 48/1/69
f 89/1/70 83/1/70 103/1/70
f 48/1/71 103/1/71 83/1/71
f 83/1/72 89/1/72 50/1/72
f 102/1/73 104/1/73 89/1/73
f 50/1/74 89/1/74 104/1/74
f 104/1/75 102/1/75 52/1/75
f 87/1/76 93/1/76 102/1/76
f 52/1/77 102/1/77 93/1/77
f 93/1/78 87/1/78 54/1/78
f 75/1/79 109/1/79 87/1/79
f 54/1/80 87/1/80 109/1/80
f 109/1/81 75/1/81 56/1/81
f 127/1/82 101/1/82 75/1/82
f 56/1/83 75/1/83 101/1/83
f 101/1/84 127/1/84 58/1/84
f 72/1/85 121/1/85 127/1/85
f 58/1/86 127/1/86 121/1/86
f 121/1/87 72/1/87 60/1/87
f 124/1/88 128/1/88 72/1/88
f 60/1/89 72/1/89 128/1/89
f 128/1/90 124/1/90 62/1/90
f 95/1/91 113/1/91 124/1/91
f 62/1/92 124/1/92 113/1/92
f 113/1/93 95/1/93 64/1/93
f 115/1/94 81/1/94 95/1/94
f 64/1/95 95/1/95 81/1/95
f 81/1/96 115/1/96 4/1/96
f 64/1/97 81/1/97 63/1/97
f 81/1/98 4/1/98 63/1/98
f 62/1/99 113/1/99 61/1/99
f 113/1/100 64/1/100 61/1/100
f 60/1/101 128/1/101 59/1/101
f 128/1/102 62/1/102 59/1/102
f 58/1/103 121/1/103 57/1/103
f 121/1/104 60/1/104 57/1/104
f 56/1/105 101/1/105 55/1/105
f 101/1/106 58/1/106 55/1/106
f 54/1/107 109/1/107 53/1/107
f 109/1/108 56/1/108 53/1/108
f 52/1/109 93/1/109 51/1/109
f 93/1/110 54/1/110 51/1/110
f 50/1/111 104/1/111 49/1/111
f 104/1/112 52/1/112 49/1/112
f 48/1/113 83/1/113 47/1/113
f 83/1/114 50/1/114 47/1/114
f 46/1/115 117/1/115 45/1/115
f 117/1/116 48/1/116 45/1/116
f 44/1/117 69/1/117 43/1/117
f 69/1/118 46/1/118 43/1/118
f 42/1/119 91/1/119 41/1/119
f 91/1/120 44/1/120 41/1/120
f 40/1/121 118/1/121 39/1/121
f 118/1/122 42/1/122 39/1/122
f 38/1/123 125/1/123 37/1/123
f 125/1/124 40/1/124 37/1/124
f 36/1/125 86/1/125 35/1/125
f 86/1/126 38/1/126 35/1/126
f 34/1/127 111/1/127 33/1/127
f 111/1/128 36/1/128 33/1/128
f 32/1/129 122/1/129 31/1/129
f 122/1/130 34/1/130 31/1/130
f 30/1/131 123/1/131 29/1/131
f 123/1/132 32/1/132 29/1/132
f 28/1/133 97/1/133 27/1/133
f 97/1/134 30/1/134 27/1/134
f 26/1/135 74/1/135 27/1/135
f 74/1/136 28/1/136 27/1/136
f 24/1/137 70/1/137 25/1/137
f 70/1/138 26/1/138 25/1/138
f 22/1/139 65/1/139 23/1/139
f 65/1/140 24/1/140 23/1/140
f 20/1/141 114/1/141 21/1/141
f 114/1/142 22/1/142 21/1/142
f 18/1/143 120/1/143 19/1/143
f 120/1/144 20/1/144 19/1/144
f 16/1/145 90/1/145 17/1/145
f 90/1/146 18/1/146 17/1/146
f 14/1/147 68/1/147 15/1/147
f 68/1/148 16/1/148 15/1/148
f 12/1/149 119/1/149 13/1/149
f 119/1/150 14/1/150 13/1/150
f 10/1/151 126/1/151 11/1/151
f 126/1/152 12/1/152 11/1/152
f 8/1/153 80/1/153 9/1/153
f 80/1/154 10/1/154 9/1/154
f 6/1/155 73/1/155 7/1/155
f 73/1/156 8/1/156 7/1/156
f 3/1/157 67/1/157 5/1/157
f 67/1/158 6/1/158 5/1/158
f 4/1/159 76/1/159 2/1/159
f 76/1/160 3/1/160 2/1/160
f 161/1/161 155/1/161 188/1/161
f 2/1/161 188/1/161 155/1/161
f 161/1/161 1/1/161 155/1/161
f 188/1/161 174/1/161 182/1/161
f 5/1/161 182/1/161 174/1/161
f 174/1/161 188/1/161 2/1/161
f 182/1/161 149/1/161 178/1/161
f 7/1/161 178/1/161 149/1/161
f 149/1/161 182/1/161 5/1/161
f 178/1/161 143/1/161 173/1/161
f 9/1/161 173/1/161 143/1/161
f 143/1/161 178/1/161 7/1/161
f 173/1/162 172/1/162 168/1/162
f 11/1/161 168/1/161 172/1/161
f 172/1/161 173/1/161 9/1/161
f 168/1/161 166/1/161 163/1/161
f 13/1/161 163/1/161 166/1/161
f 166/1/161 168/1/161 11/1/161
f 163/1/161 170/1/161 157/1/161
f 15/1/161 157/1/161 170/1/161
f 170/1/162 163/1/162 13/1/162
f 157/1/161 156/1/161 152/1/161
f 17/1/161 152/1/161 156/1/161
f 156/1/161 157/1/161 15/1/161
f 152/1/161 137/1/161 147/1/161
f 19/1/162 147/1/162 137/1/162
f 137/1/161 152/1/161 17/1/161
f 147/1/161 151/1/161 141/1/161
f 21/1/161 141/1/161 151/1/161
f 151/1/161 147/1/161 19/1/161
f 141/1/161 162/1/161 134/1/161
f 23/1/162 134/1/162 162/1/162
f 162/1/161 141/1/161 21/1/161
f 134/1/161 135/1/161 129/1/161
f 25/1/161 129/1/161 135/1/161
f 135/1/161 134/1/161 23/1/161
f 129/1/161 139/1/161 190/1/161
f 27/1/161 190/1/161 139/1/161
f 139/1/161 129/1/161 25/1/161
f 190/1/161 140/1/161 186/1/161
f 29/1/161 186/1/161 140/1/161
f 140/1/161 190/1/161 27/1/161
f 186/1/161 160/1/161 184/1/161
f 31/1/161 184/1/161 160/1/161
f 160/1/161 186/1/161 29/1/161
f 184/1/161 183/1/161 179/1/161
f 33/1/161 179/1/161 183/1/161
f 183/1/161 184/1/161 31/1/161
f 179/1/161 167/1/161 175/1/161
f 35/1/161 175/1/161 167/1/161
f 167/1/161 179/1/161 33/1/161
f 175/1/161 148/1/161 169/1/161
f 37/1/161 169/1/161 148/1/161
f 148/1/161 175/1/161 35/1/161
f 169/1/161 132/1/161 165/1/161
f 39/1/161 165/1/161 132/1/161
f 132/1/161 169/1/161 37/1/161
f 165/1/161 176/1/161 159/1/161
f 41/1/161 159/1/161 176/1/161
f 176/1/161 165/1/161 39/1/161
f 159/1/161 145/1/161 154/1/161
f 43/1/161 154/1/161 145/1/161
f 145/1/161 159/1/161 41/1/161
f 154/1/161 130/1/161 150/1/161
f 45/1/161 150/1/161 130/1/161
f 130/1/162 154/1/162 43/1/162
f 150/1/161 181/1/161 144/1/161
f 47/1/161 144/1/161 181/1/161
f 181/1/161 150/1/161 45/1/161
f 144/1/161 146/1/161 136/1/161
f 49/1/161 136/1/161 146/1/161
f 146/1/162 144/1/162 47/1/162
f 136/1/161 189/1/161 131/1/161
f 51/1/161 131/1/161 189/1/161
f 189/1/161 136/1/161 49/1/161
f 131/1/161 153/1/161 192/1/161
f 53/1/162 192/1/162 153/1/162
f 153/1/161 131/1/161 51/1/161
f 192/1/161 133/1/161 187/1/161
f 55/1/161 187/1/161 133/1/161
f 133/1/161 192/1/161 53/1/161
f 187/1/162 158/1/162 185/1/162
f 57/1/161 185/1/161 158/1/161
f 158/1/161 187/1/161 55/1/161
f 185/1/161 164/1/161 180/1/161
f 59/1/161 180/1/161 164/1/161
f 164/1/161 185/1/161 57/1/161
f 180/1/161 191/1/161 177/1/161
f 61/1/161 177/1/161 191/1/161
f 191/1/161 180/1/161 59/1/161
f 177/1/161 138/1/161 171/1/161
f 63/1/161 171/1/161 138/1/161
f 138/1/161 177/1/161 61/1/161
f 142/1/161 1/1/161 161/1/161
f 161/1/161 171/1/161 142/1/161
f 63/1/161 142/1/161 171/1/161
f 1/1/163 142/1/163 4/1/163
f 142/1/164 63/1/164 4/1/164
f 63/1/165 138/1/165 64/1/165
f 138/1/165 61/1/165 64/1/165
f 61/1/166 191/1/166 62/1/166
f 191/1/167 59/1/167 62/1/167
f 59/1/168 164/1/168 60/1/168
f 164/1/168 57/1/168 60/1/168
f 57/1/169 158/1/169 58/1/169
f 158/1/170 55/1/170 58/1/170
f 55/1/171 133/1/171 56/1/171
f 133/1/172 53/1/172 56/1/172
f 53/1/173 153/1/173 54/1/173
f 153/1/174 51/1/174 54/1/174
f 51/1/175 189/1/175 52/1/175
f 189/1/176 49/1/176 52/1/176
f 49/1/177 146/1/177 50/1/177
f 146/1/178 47/1/178 50/1/178
f 47/1/179 181/1/179 48/1/179
f 181/1/180 45/1/180 48/1/180
f 45/1/181 130/1/181 46/1/181
f 130/1/182 43/1/182 46/1/182
f 43/1/183 145/1/183 44/1/183
f 145/1/183 41/1/183 44/1/183
f 41/1/184 176/1/184 42/1/184
f 176/1/184 39/1/184 42/1/184
f 39/1/185 132/1/185 40/1/185
f 132/1/185 37/1/185 40/1/185
f 37/1/186 148/1/186 38/1/186
f 148/1/186 35/1/186 38/1/186
f 35/1/187 167/1/187 36/1/187
f 167/1/188 33/1/188 36/1/188
f 33/1/189 183/1/189 34/1/189
f 183/1/190 31/1/190 34/1/190
f 31/1/191 160/1/191 32/1/191
f 160/1/191 29/1/191 32/1/191
f 29/1/192 140/1/192 30/1/192
f 140/1/192 27/1/192 30/1/192
f 27/1/193 139/1/193 26/1/193
f 139/1/193 25/1/193 26/1/193
f 25/1/194 135/1/194 24/1/194
f 135/1/194 23/1/194 24/1/194
f 23/1/195 162/1/195 22/1/195
f 162/1/195 21/1/195 22/1/195
f 21/1/196 151/1/196 20/1/196
f 151/1/196 19/1/196 20/1/196
f 19/1/197 137/1/197 18/1/197
f 137/1/198 17/1/198 18/1/198
f 17/1/199 156/1/199 16/1/199
f 156/1/200 15/1/200 16/1/200
f 15/1/201 170/1/201 14/1/201
f 170/1/201 13/1/201 14/1/201
f 13/1/202 166/1/202 12/1/202
f 166/1/202 11/1/202 12/1/202
f 11/1/203 172/1/203 10/1/203
f 172/1/203 9/1/203 10/1/203
f 9/1/204 143/1/204 8/1/204
f 143/1/204 7/1/204 8/1/204
f 7/1/205 149/1/205 6/1/205
f 149/1/205 5/1/205 6/1/205
f 5/1/206 174/1/206 3/1/206
f 174/1/206 2/1/206 3/1/206
f 2/1/207 155/1/207 4/1/207
f 155/1/208 1/1/208 4/1/208
