# Blender v2.62 (sub 0) OBJ File: ''
# www.blender.org
mtllib untitled.mtl
o Mesh_Mesh_Cylinder
v -0.009019 0.500000 0.010990
v -0.009019 0.500000 -0.239010
v 0.039753 0.500000 -0.234206
v -0.009019 0.750000 0.010990
v 0.039754 0.750000 -0.234206
v -0.009019 0.750000 -0.239010
v 0.086652 0.500000 -0.219980
v 0.086652 0.750000 -0.219979
v 0.129873 0.500000 -0.196877
v 0.129874 0.750000 -0.196877
v 0.167757 0.500000 -0.165786
v 0.167758 0.750000 -0.165786
v 0.198848 0.500000 -0.127902
v 0.198848 0.750000 -0.127902
v 0.221951 0.500000 -0.084681
v 0.221951 0.750000 -0.084680
v 0.236177 0.500000 -0.037782
v 0.236177 0.750000 -0.037782
v 0.240981 0.500000 0.010990
v 0.240981 0.750000 0.010991
v 0.236177 0.500000 0.059763
v 0.236177 0.750000 0.059763
v 0.221951 0.500000 0.106661
v 0.221951 0.750000 0.106661
v 0.198848 0.500000 0.149883
v 0.198848 0.750000 0.149883
v 0.167757 0.500000 0.187767
v 0.167757 0.750000 0.187767
v 0.129873 0.500000 0.218858
v 0.129873 0.750000 0.218858
v 0.086652 0.500000 0.241960
v 0.086652 0.750000 0.241960
v 0.039753 0.500000 0.256187
v 0.039753 0.750000 0.256187
v -0.009019 0.500000 0.260990
v -0.009019 0.750000 0.260990
v -0.057792 0.500000 0.256187
v -0.057792 0.750000 0.256187
v -0.104690 0.500000 0.241960
v -0.104690 0.750000 0.241960
v -0.147912 0.500000 0.218858
v -0.147911 0.750000 0.218858
v -0.185796 0.500000 0.187767
v -0.185795 0.750000 0.187767
v -0.216887 0.500000 0.149883
v -0.216886 0.750000 0.149883
v -0.239989 0.500000 0.106661
v -0.239989 0.750000 0.106662
v -0.254216 0.500000 0.059763
v -0.254215 0.750000 0.059764
v -0.259019 0.500000 0.010990
v -0.259019 0.750000 0.010991
v -0.254216 0.500000 -0.037783
v -0.254216 0.750000 -0.037781
v -0.239989 0.500000 -0.084681
v -0.239990 0.750000 -0.084679
v -0.216886 0.500000 -0.127903
v -0.216887 0.750000 -0.127901
v -0.185796 0.500000 -0.165787
v -0.185797 0.750000 -0.165785
v -0.147912 0.500000 -0.196877
v -0.147913 0.750000 -0.196876
v -0.104690 0.500000 -0.219980
v -0.104692 0.750000 -0.219979
v -0.057791 0.500000 -0.234206
v -0.057794 0.750000 -0.234206
v -0.147912 0.500000 0.218858
v -0.147911 0.750000 0.218858
v -0.185795 0.750000 0.187767
v -0.185796 0.500000 0.187767
v 0.210399 0.750000 0.128272
v -0.124504 0.750000 0.058826
v 0.063203 0.750000 -0.227093
v 0.229064 0.750000 -0.061231
v -0.228437 0.750000 0.128272
v 0.183303 0.750000 0.168825
v -0.097407 0.750000 0.099379
v -0.078466 0.750000 -0.092943
v 0.108263 0.750000 -0.208428
v 0.148815 0.750000 0.203312
v -0.112953 0.750000 -0.058456
v 0.015368 0.750000 -0.236608
v 0.060427 0.750000 0.114924
v 0.015367 0.750000 -0.111608
v 0.038816 0.750000 0.126475
v 0.148816 0.750000 -0.181332
v -0.033406 0.750000 -0.236608
v 0.094914 0.750000 0.080437
v -0.256617 0.750000 0.035377
v 0.079369 0.750000 0.099379
v -0.112953 0.750000 0.080437
v -0.081241 0.750000 0.249073
v -0.124504 0.750000 -0.036845
v -0.078465 0.750000 0.114924
v -0.134019 0.750000 0.010991
v 0.238579 0.750000 -0.013396
v -0.201341 0.750000 0.168825
v 0.094915 0.750000 -0.058456
v -0.247103 0.750000 -0.061230
v 0.106466 0.750000 -0.036845
v -0.033406 0.750000 -0.111608
v 0.060427 0.750000 -0.092943
v 0.108263 0.750000 0.230409
v 0.079369 0.750000 -0.077398
v -0.056854 0.750000 0.126475
v -0.009019 0.750000 0.135990
v -0.201342 0.750000 -0.146843
v -0.131617 0.750000 -0.013396
v -0.131617 0.750000 0.035377
v -0.256617 0.750000 -0.013395
v 0.113579 0.750000 0.035377
v 0.106466 0.750000 0.058826
v 0.113579 0.750000 -0.013396
v 0.115981 0.750000 0.010990
v -0.228438 0.750000 -0.106290
v -0.033405 0.750000 0.133588
v -0.033405 0.750000 0.258588
v 0.015367 0.750000 0.133588
v -0.081243 0.750000 -0.227093
v 0.229064 0.750000 0.083212
v -0.009019 0.750000 -0.114010
v 0.038817 0.750000 -0.104495
v -0.247102 0.750000 0.083213
v -0.166853 0.750000 0.203312
v 0.210400 0.750000 -0.106291
v 0.238579 0.750000 0.035377
v -0.166855 0.750000 -0.181331
v 0.015367 0.750000 0.258588
v 0.063203 0.750000 0.249073
v -0.056855 0.750000 -0.104495
v -0.126300 0.750000 0.230409
v 0.183303 0.750000 -0.146844
v -0.097408 0.750000 -0.077398
v -0.126302 0.750000 -0.208428
v -0.097408 0.888072 -0.077398
v -0.056855 0.888072 -0.104495
v 0.038817 0.888072 -0.104495
v -0.009019 0.888072 -0.114010
v 0.015367 0.888072 0.133588
v -0.033405 0.888072 0.133588
v 0.115981 0.888072 0.010990
v 0.113579 0.888072 -0.013396
v 0.106466 0.888072 0.058826
v 0.113579 0.888072 0.035377
v -0.131617 0.888072 0.035377
v -0.131617 0.888072 -0.013396
v -0.009019 0.888072 0.135990
v -0.056854 0.888072 0.126475
v 0.079369 0.888072 -0.077398
v 0.060427 0.888072 -0.092943
v -0.033406 0.888072 -0.111608
v 0.106466 0.888072 -0.036845
v 0.094915 0.888072 -0.058456
v -0.134019 0.888072 0.010991
v -0.078465 0.888072 0.114924
v -0.124504 0.888072 -0.036845
v -0.112953 0.888072 0.080437
v 0.079369 0.888072 0.099379
v 0.094914 0.888072 0.080437
v 0.038816 0.888072 0.126475
v 0.015367 0.888072 -0.111608
v 0.060427 0.888072 0.114924
v -0.112953 0.888072 -0.058456
v -0.078466 0.888072 -0.092943
v -0.097407 0.888072 0.099379
v -0.124504 0.888072 0.058826
v -0.126302 0.750000 -0.208428
v -0.097408 0.800980 -0.077398
v 0.183303 0.750000 -0.146844
v -0.126300 0.750000 0.230409
v -0.056855 0.800980 -0.104495
v 0.063203 0.750000 0.249073
v 0.015367 0.750000 0.258588
v -0.166855 0.750000 -0.181331
v 0.238579 0.750000 0.035377
v 0.210400 0.750000 -0.106291
v -0.166853 0.750000 0.203312
v -0.247102 0.750000 0.083213
v 0.038817 0.800980 -0.104495
v -0.009019 0.800980 -0.114010
v 0.229064 0.750000 0.083212
v -0.081243 0.750000 -0.227093
v 0.015367 0.800980 0.133588
v -0.033405 0.750000 0.258588
v -0.033405 0.800980 0.133588
v -0.228438 0.750000 -0.106290
v 0.115981 0.800980 0.010990
v 0.113579 0.800980 -0.013396
v 0.106466 0.800980 0.058826
v 0.113579 0.800980 0.035377
v -0.256617 0.750000 -0.013395
v -0.131617 0.800980 0.035377
v -0.131617 0.800980 -0.013396
v -0.201342 0.750000 -0.146843
v -0.009019 0.800980 0.135990
v -0.056854 0.800980 0.126475
v 0.079369 0.800980 -0.077398
v 0.108263 0.750000 0.230409
v 0.060427 0.800980 -0.092943
v -0.033406 0.800980 -0.111608
v 0.106466 0.800980 -0.036845
v -0.247103 0.750000 -0.061230
v 0.094915 0.800980 -0.058456
v -0.201341 0.750000 0.168825
v 0.238579 0.750000 -0.013396
v -0.134019 0.800980 0.010991
v -0.078465 0.800980 0.114924
v -0.124504 0.800980 -0.036845
v -0.081241 0.750000 0.249073
v -0.112953 0.800980 0.080437
v 0.079369 0.800980 0.099379
v -0.256617 0.750000 0.035377
v 0.094914 0.800980 0.080437
v -0.033406 0.750000 -0.236608
v 0.148816 0.750000 -0.181332
v 0.038816 0.800980 0.126475
v 0.015367 0.800980 -0.111608
v 0.060427 0.800980 0.114924
v 0.015368 0.750000 -0.236608
v -0.112953 0.800980 -0.058456
v 0.148815 0.750000 0.203312
v 0.108263 0.750000 -0.208428
v -0.078466 0.800980 -0.092943
v -0.097407 0.800980 0.099379
v 0.183303 0.750000 0.168825
v -0.228437 0.750000 0.128272
v 0.229064 0.750000 -0.061231
v 0.063203 0.750000 -0.227093
v -0.124504 0.800980 0.058826
v 0.210399 0.750000 0.128272
v -0.009019 0.800980 0.010990
vt 0.000000 0.000000
vn 0.000000 -1.000000 -0.000000
vn -0.000002 -1.000000 -0.000002
vn 0.000000 -1.000000 -0.000001
vn 0.000002 -1.000000 -0.000002
vn -0.098015 0.000000 -0.995185
vn -0.290285 -0.000001 -0.956940
vn -0.471394 -0.000002 -0.881922
vn -0.634392 -0.000001 -0.773011
vn -0.773012 0.000001 -0.634392
vn -0.881918 -0.000001 -0.471403
vn -0.956939 -0.000000 -0.290288
vn -0.995185 0.000001 -0.098013
vn -0.995185 -0.000000 0.098014
vn -0.956940 0.000001 0.290288
vn -0.881923 -0.000000 0.471394
vn -0.773011 0.000000 0.634392
vn -0.634393 0.000001 0.773010
vn -0.471399 0.000001 0.881920
vn -0.290285 0.000001 0.956940
vn -0.098013 0.000000 0.995185
vn 0.098013 -0.000000 0.995185
vn 0.290285 -0.000000 0.956940
vn 0.471399 -0.000000 0.881920
vn 0.634398 -0.000002 0.773006
vn 0.773006 0.000000 0.634398
vn 0.881920 -0.000000 0.471399
vn 0.956940 0.000001 0.290285
vn 0.995185 -0.000000 0.098014
vn 0.995185 0.000000 -0.098014
vn 0.956940 0.000001 -0.290285
vn 0.881920 0.000001 -0.471399
vn 0.773006 -0.000002 -0.634398
vn 0.634398 0.000000 -0.773006
vn 0.471399 0.000001 -0.881920
vn 0.290285 0.000002 -0.956940
vn 0.098014 -0.000000 -0.995185
vn 0.000000 1.000000 0.000000
vn -0.000000 1.000000 0.000001
vn 0.000002 1.000000 0.000002
vn -0.000001 1.000000 0.000002
vn -0.000002 1.000000 0.000002
vn 0.000001 1.000000 0.000002
vn -0.098019 0.000001 -0.995184
vn -0.098019 0.000001 -0.995185
vn -0.290287 -0.000000 -0.956940
vn -0.471407 0.000001 -0.881916
vn -0.634403 0.000002 -0.773002
vn -0.773011 0.000001 -0.634392
vn -0.881923 0.000001 -0.471394
vn -0.881922 0.000001 -0.471395
vn -0.956942 0.000002 -0.290278
vn -0.995185 0.000000 -0.098014
vn -0.995184 0.000002 0.098024
vn -0.956940 0.000001 0.290287
vn -0.881920 0.000001 0.471399
vn -0.773007 0.000002 0.634398
vn -0.773006 0.000002 0.634398
vn -0.634392 0.000001 0.773012
vn -0.634392 0.000001 0.773011
vn -0.290287 0.000000 0.956940
vn -0.290288 -0.000000 0.956939
vn 0.290284 -0.000000 0.956940
vn 0.634392 -0.000000 0.773011
vn 0.773011 -0.000001 0.634392
vn 0.773012 -0.000001 0.634392
vn 0.881918 0.000001 0.471403
vn 0.881918 0.000001 0.471402
vn 0.956942 0.000000 0.290279
vn 0.956942 -0.000000 0.290278
vn 0.995184 0.000002 0.098024
vn 0.773016 0.000001 -0.634387
vn 0.634392 -0.000001 -0.773011
vn 0.634392 -0.000001 -0.773012
vn 0.290284 0.000001 -0.956941
vn 0.098024 0.000002 -0.995184
vn -0.037169 0.925312 -0.377380
vn -0.110078 0.925313 -0.362877
vn -0.178760 0.925312 -0.334428
vn -0.240570 0.925312 -0.293127
vn -0.293131 0.925312 -0.240566
vn -0.334431 0.925312 -0.178756
vn -0.362879 0.925312 -0.110075
vn -0.377381 0.925312 -0.037167
vn -0.377380 0.925312 0.037171
vn -0.362878 0.925312 0.110079
vn -0.334430 0.925312 0.178758
vn -0.293129 0.925312 0.240568
vn -0.240566 0.925312 0.293131
vn -0.178758 0.925312 0.334430
vn -0.110079 0.925312 0.362878
vn -0.037167 0.925312 0.377381
vn 0.037167 0.925312 0.377381
vn 0.110078 0.925312 0.362878
vn 0.178758 0.925312 0.334430
vn 0.240566 0.925312 0.293131
vn 0.293131 0.925312 0.240565
vn 0.334429 0.925312 0.178759
vn 0.362879 0.925312 0.110075
vn 0.377380 0.925312 0.037171
vn 0.377380 0.925312 -0.037167
vn 0.362878 0.925312 -0.110078
vn 0.334430 0.925312 -0.178758
vn 0.293133 0.925312 -0.240564
vn 0.240565 0.925312 -0.293131
vn 0.178757 0.925312 -0.334430
vn 0.110077 0.925312 -0.362877
vn 0.037171 0.925312 -0.377380
vn -0.634388 0.000000 0.773003
usemtl 
s off
f 1/1/1 2/1/1 3/1/1
f 1/1/1 3/1/1 7/1/1
f 1/1/1 7/1/1 9/1/1
f 1/1/2 9/1/2 11/1/2
f 1/1/1 11/1/1 13/1/1
f 1/1/1 13/1/1 15/1/1
f 1/1/1 15/1/1 17/1/1
f 1/1/1 17/1/1 19/1/1
f 1/1/1 19/1/1 21/1/1
f 1/1/3 21/1/3 23/1/3
f 1/1/1 23/1/1 25/1/1
f 1/1/3 25/1/3 27/1/3
f 1/1/1 27/1/1 29/1/1
f 1/1/1 29/1/1 31/1/1
f 1/1/1 31/1/1 33/1/1
f 1/1/1 33/1/1 35/1/1
f 1/1/1 35/1/1 37/1/1
f 1/1/1 37/1/1 39/1/1
f 1/1/1 39/1/1 41/1/1
f 1/1/1 41/1/1 43/1/1
f 1/1/3 43/1/3 45/1/3
f 1/1/1 45/1/1 47/1/1
f 1/1/3 47/1/3 49/1/3
f 1/1/1 49/1/1 51/1/1
f 1/1/1 51/1/1 53/1/1
f 1/1/1 53/1/1 55/1/1
f 1/1/1 55/1/1 57/1/1
f 1/1/1 57/1/1 59/1/1
f 1/1/4 59/1/4 61/1/4
f 1/1/1 61/1/1 63/1/1
f 1/1/1 63/1/1 65/1/1
f 2/1/1 1/1/1 65/1/1
f 6/1/5 2/1/5 65/1/5
f 63/1/6 66/1/6 65/1/6
f 61/1/7 64/1/7 63/1/7
f 59/1/8 62/1/8 61/1/8
f 57/1/9 60/1/9 59/1/9
f 55/1/10 58/1/10 57/1/10
f 53/1/11 56/1/11 55/1/11
f 51/1/12 54/1/12 53/1/12
f 49/1/13 52/1/13 51/1/13
f 47/1/14 50/1/14 49/1/14
f 45/1/15 48/1/15 47/1/15
f 43/1/16 46/1/16 45/1/16
f 41/1/17 44/1/17 43/1/17
f 39/1/18 42/1/18 41/1/18
f 37/1/19 40/1/19 39/1/19
f 35/1/20 38/1/20 37/1/20
f 33/1/21 36/1/21 35/1/21
f 31/1/22 34/1/22 33/1/22
f 29/1/23 32/1/23 31/1/23
f 27/1/24 28/1/24 29/1/24
f 25/1/25 26/1/25 27/1/25
f 23/1/26 24/1/26 25/1/26
f 21/1/27 22/1/27 23/1/27
f 19/1/28 20/1/28 21/1/28
f 17/1/29 18/1/29 19/1/29
f 15/1/30 16/1/30 17/1/30
f 13/1/31 14/1/31 15/1/31
f 11/1/32 12/1/32 13/1/32
f 9/1/33 10/1/33 11/1/33
f 7/1/34 8/1/34 9/1/34
f 3/1/35 5/1/35 7/1/35
f 2/1/36 6/1/36 3/1/36
f 121/1/37 4/1/37 84/1/37
f 84/1/38 82/1/38 121/1/38
f 6/1/38 121/1/38 82/1/38
f 82/1/38 84/1/38 5/1/38
f 84/1/37 4/1/37 122/1/37
f 122/1/38 73/1/38 84/1/38
f 5/1/38 84/1/38 73/1/38
f 73/1/38 122/1/38 8/1/38
f 122/1/37 4/1/37 102/1/37
f 102/1/37 79/1/37 122/1/37
f 8/1/39 122/1/39 79/1/39
f 79/1/37 102/1/37 10/1/37
f 102/1/37 4/1/37 104/1/37
f 104/1/37 86/1/37 102/1/37
f 10/1/39 102/1/39 86/1/39
f 86/1/37 104/1/37 12/1/37
f 104/1/37 4/1/37 98/1/37
f 98/1/37 132/1/37 104/1/37
f 12/1/37 104/1/37 132/1/37
f 132/1/37 98/1/37 14/1/37
f 98/1/37 4/1/37 100/1/37
f 100/1/37 125/1/37 98/1/37
f 14/1/37 98/1/37 125/1/37
f 125/1/37 100/1/37 16/1/37
f 100/1/37 4/1/37 113/1/37
f 113/1/37 74/1/37 100/1/37
f 16/1/37 100/1/37 74/1/37
f 74/1/37 113/1/37 18/1/37
f 113/1/37 4/1/37 114/1/37
f 114/1/37 96/1/37 113/1/37
f 18/1/37 113/1/37 96/1/37
f 96/1/37 114/1/37 20/1/37
f 114/1/37 4/1/37 111/1/37
f 111/1/37 126/1/37 114/1/37
f 20/1/37 114/1/37 126/1/37
f 126/1/37 111/1/37 22/1/37
f 111/1/37 4/1/37 112/1/37
f 112/1/37 120/1/37 111/1/37
f 22/1/37 111/1/37 120/1/37
f 120/1/37 112/1/37 24/1/37
f 112/1/37 4/1/37 88/1/37
f 88/1/37 71/1/37 112/1/37
f 24/1/37 112/1/37 71/1/37
f 71/1/37 88/1/37 26/1/37
f 88/1/37 4/1/37 90/1/37
f 90/1/37 76/1/37 88/1/37
f 26/1/37 88/1/37 76/1/37
f 76/1/40 90/1/40 28/1/40
f 90/1/37 4/1/37 83/1/37
f 83/1/37 80/1/37 90/1/37
f 28/1/37 90/1/37 80/1/37
f 80/1/37 83/1/37 30/1/37
f 83/1/37 4/1/37 85/1/37
f 85/1/37 103/1/37 83/1/37
f 30/1/37 83/1/37 103/1/37
f 103/1/41 85/1/41 32/1/41
f 85/1/37 4/1/37 118/1/37
f 118/1/38 129/1/38 85/1/38
f 32/1/38 85/1/38 129/1/38
f 129/1/38 118/1/38 34/1/38
f 118/1/37 4/1/37 106/1/37
f 106/1/38 128/1/38 118/1/38
f 34/1/38 118/1/38 128/1/38
f 128/1/38 106/1/38 36/1/38
f 106/1/37 4/1/37 116/1/37
f 116/1/38 117/1/38 106/1/38
f 36/1/38 106/1/38 117/1/38
f 117/1/38 116/1/38 38/1/38
f 116/1/37 4/1/37 105/1/37
f 105/1/38 92/1/38 116/1/38
f 38/1/38 116/1/38 92/1/38
f 92/1/38 105/1/38 40/1/38
f 105/1/37 4/1/37 94/1/37
f 94/1/37 131/1/37 105/1/37
f 40/1/39 105/1/39 131/1/39
f 131/1/37 94/1/37 42/1/37
f 94/1/37 4/1/37 77/1/37
f 77/1/37 124/1/37 94/1/37
f 42/1/37 94/1/37 124/1/37
f 124/1/37 77/1/37 44/1/37
f 77/1/37 4/1/37 91/1/37
f 91/1/37 97/1/37 77/1/37
f 44/1/42 77/1/42 97/1/42
f 97/1/37 91/1/37 46/1/37
f 91/1/37 4/1/37 72/1/37
f 72/1/37 75/1/37 91/1/37
f 46/1/37 91/1/37 75/1/37
f 75/1/37 72/1/37 48/1/37
f 72/1/37 4/1/37 109/1/37
f 109/1/37 123/1/37 72/1/37
f 48/1/37 72/1/37 123/1/37
f 123/1/37 109/1/37 50/1/37
f 109/1/37 4/1/37 95/1/37
f 95/1/37 89/1/37 109/1/37
f 50/1/37 109/1/37 89/1/37
f 89/1/37 95/1/37 52/1/37
f 95/1/37 4/1/37 108/1/37
f 108/1/37 110/1/37 95/1/37
f 52/1/37 95/1/37 110/1/37
f 110/1/37 108/1/37 54/1/37
f 108/1/37 4/1/37 93/1/37
f 93/1/37 99/1/37 108/1/37
f 54/1/37 108/1/37 99/1/37
f 99/1/37 93/1/37 56/1/37
f 93/1/37 4/1/37 81/1/37
f 81/1/37 115/1/37 93/1/37
f 56/1/37 93/1/37 115/1/37
f 115/1/37 81/1/37 58/1/37
f 81/1/37 4/1/37 133/1/37
f 133/1/37 107/1/37 81/1/37
f 58/1/37 81/1/37 107/1/37
f 107/1/37 133/1/37 60/1/37
f 133/1/37 4/1/37 78/1/37
f 78/1/37 127/1/37 133/1/37
f 60/1/37 133/1/37 127/1/37
f 127/1/41 78/1/41 62/1/41
f 78/1/37 4/1/37 130/1/37
f 130/1/37 134/1/37 78/1/37
f 62/1/37 78/1/37 134/1/37
f 134/1/41 130/1/41 64/1/41
f 130/1/37 4/1/37 101/1/37
f 101/1/38 119/1/38 130/1/38
f 64/1/38 130/1/38 119/1/38
f 119/1/38 101/1/38 66/1/38
f 101/1/37 4/1/37 121/1/37
f 121/1/38 87/1/38 101/1/38
f 66/1/38 101/1/38 87/1/38
f 87/1/38 121/1/38 6/1/38
f 66/1/43 87/1/43 65/1/43
f 87/1/44 6/1/44 65/1/44
f 64/1/45 119/1/45 63/1/45
f 119/1/45 66/1/45 63/1/45
f 62/1/46 134/1/46 61/1/46
f 134/1/46 64/1/46 61/1/46
f 60/1/47 127/1/47 59/1/47
f 127/1/47 62/1/47 59/1/47
f 58/1/48 107/1/48 57/1/48
f 107/1/48 60/1/48 57/1/48
f 56/1/49 115/1/49 55/1/49
f 115/1/50 58/1/50 55/1/50
f 54/1/51 99/1/51 53/1/51
f 99/1/51 56/1/51 53/1/51
f 52/1/52 110/1/52 51/1/52
f 110/1/12 54/1/12 51/1/12
f 50/1/53 89/1/53 49/1/53
f 89/1/53 52/1/53 49/1/53
f 48/1/54 123/1/54 47/1/54
f 123/1/54 50/1/54 47/1/54
f 46/1/55 75/1/55 45/1/55
f 75/1/55 48/1/55 45/1/55
f 44/1/56 97/1/56 43/1/56
f 97/1/57 46/1/57 43/1/57
f 42/1/58 124/1/58 41/1/58
f 124/1/59 44/1/59 41/1/59
f 40/1/18 131/1/18 39/1/18
f 131/1/18 42/1/18 39/1/18
f 38/1/60 92/1/60 37/1/60
f 92/1/61 40/1/61 37/1/61
f 36/1/20 117/1/20 35/1/20
f 117/1/20 38/1/20 35/1/20
f 34/1/21 128/1/21 33/1/21
f 128/1/21 36/1/21 33/1/21
f 32/1/22 129/1/22 31/1/22
f 129/1/62 34/1/62 31/1/62
f 30/1/23 103/1/23 29/1/23
f 103/1/23 32/1/23 29/1/23
f 28/1/63 80/1/63 29/1/63
f 80/1/63 30/1/63 29/1/63
f 26/1/64 76/1/64 27/1/64
f 76/1/65 28/1/65 27/1/65
f 24/1/66 71/1/66 25/1/66
f 71/1/67 26/1/67 25/1/67
f 22/1/68 120/1/68 23/1/68
f 120/1/69 24/1/69 23/1/69
f 20/1/70 126/1/70 21/1/70
f 126/1/70 22/1/70 21/1/70
f 18/1/29 96/1/29 19/1/29
f 96/1/29 20/1/29 19/1/29
f 16/1/30 74/1/30 17/1/30
f 74/1/30 18/1/30 17/1/30
f 14/1/31 125/1/31 15/1/31
f 125/1/31 16/1/31 15/1/31
f 12/1/71 132/1/71 13/1/71
f 132/1/71 14/1/71 13/1/71
f 10/1/72 86/1/72 11/1/72
f 86/1/73 12/1/73 11/1/73
f 8/1/34 79/1/34 9/1/34
f 79/1/34 10/1/34 9/1/34
f 5/1/74 73/1/74 7/1/74
f 73/1/74 8/1/74 7/1/74
f 6/1/75 82/1/75 3/1/75
f 82/1/75 5/1/75 3/1/75
f 180/1/76 214/1/76 200/1/76
f 200/1/37 231/1/37 180/1/37
f 200/1/77 182/1/77 171/1/77
f 171/1/37 231/1/37 200/1/37
f 171/1/78 167/1/78 223/1/78
f 223/1/37 231/1/37 171/1/37
f 223/1/79 174/1/79 168/1/79
f 168/1/37 231/1/37 223/1/37
f 168/1/80 194/1/80 220/1/80
f 220/1/37 231/1/37 168/1/37
f 220/1/81 186/1/81 208/1/81
f 208/1/37 231/1/37 220/1/37
f 208/1/82 202/1/82 193/1/82
f 193/1/37 231/1/37 208/1/37
f 193/1/83 191/1/83 206/1/83
f 206/1/37 231/1/37 193/1/37
f 206/1/84 212/1/84 192/1/84
f 192/1/37 231/1/37 206/1/37
f 192/1/85 178/1/85 229/1/85
f 229/1/37 231/1/37 192/1/37
f 229/1/86 226/1/86 210/1/86
f 210/1/37 231/1/37 229/1/37
f 210/1/87 204/1/87 224/1/87
f 224/1/37 231/1/37 210/1/37
f 224/1/88 177/1/88 207/1/88
f 207/1/37 231/1/37 224/1/37
f 207/1/89 170/1/89 196/1/89
f 196/1/37 231/1/37 207/1/37
f 196/1/90 209/1/90 185/1/90
f 185/1/37 231/1/37 196/1/37
f 185/1/91 184/1/91 195/1/91
f 195/1/37 231/1/37 185/1/37
f 195/1/92 173/1/92 183/1/92
f 183/1/37 231/1/37 195/1/37
f 183/1/93 172/1/93 216/1/93
f 216/1/37 231/1/37 183/1/37
f 216/1/94 198/1/94 218/1/94
f 218/1/37 231/1/37 216/1/37
f 218/1/95 221/1/95 211/1/95
f 211/1/37 231/1/37 218/1/37
f 211/1/96 225/1/96 213/1/96
f 213/1/37 231/1/37 211/1/37
f 213/1/97 230/1/97 189/1/97
f 189/1/37 231/1/37 213/1/37
f 189/1/98 181/1/98 190/1/98
f 190/1/37 231/1/37 189/1/37
f 190/1/99 175/1/99 187/1/99
f 187/1/37 231/1/37 190/1/37
f 187/1/100 205/1/100 188/1/100
f 188/1/37 231/1/37 187/1/37
f 188/1/101 227/1/101 201/1/101
f 201/1/37 231/1/37 188/1/37
f 201/1/102 176/1/102 203/1/102
f 203/1/37 231/1/37 201/1/37
f 203/1/103 169/1/103 197/1/103
f 197/1/37 231/1/37 203/1/37
f 197/1/104 215/1/104 199/1/104
f 199/1/37 231/1/37 197/1/37
f 199/1/105 222/1/105 179/1/105
f 179/1/37 231/1/37 199/1/37
f 179/1/106 228/1/106 217/1/106
f 217/1/37 231/1/37 179/1/37
f 217/1/107 219/1/107 180/1/107
f 180/1/37 231/1/37 217/1/37
s 1
f 67/1/108 68/1/108 69/1/108
f 67/1/108 69/1/108 70/1/108
