# Blender v2.62 (sub 0) OBJ File: ''
# www.blender.org
mtllib teleporter_top.mtl
o Mesh_Cylinder
v 0.000000 0.500000 0.000000
v 0.000000 0.500000 -0.500000
v 0.097545 0.500000 -0.490393
v 0.000000 0.750000 0.000000
v 0.097546 0.750000 -0.490392
v 0.000001 0.750000 -0.500000
v 0.191342 0.500000 -0.461940
v 0.191343 0.750000 -0.461939
v 0.277785 0.500000 -0.415735
v 0.277786 0.750000 -0.415734
v 0.353553 0.500000 -0.353553
v 0.353554 0.750000 -0.353553
v 0.415735 0.500000 -0.277785
v 0.415735 0.750000 -0.277784
v 0.461940 0.500000 -0.191342
v 0.461940 0.750000 -0.191341
v 0.490393 0.500000 -0.097545
v 0.490393 0.750000 -0.097544
v 0.500000 0.500000 0.000000
v 0.500000 0.750000 0.000001
v 0.490393 0.500000 0.097545
v 0.490392 0.750000 0.097546
v 0.461940 0.500000 0.191342
v 0.461940 0.750000 0.191342
v 0.415735 0.500000 0.277785
v 0.415734 0.750000 0.277786
v 0.353553 0.500000 0.353553
v 0.353553 0.750000 0.353554
v 0.277785 0.500000 0.415735
v 0.277785 0.750000 0.415735
v 0.191342 0.500000 0.461940
v 0.191342 0.750000 0.461940
v 0.097545 0.500000 0.490393
v 0.097545 0.750000 0.490393
v 0.000000 0.500000 0.500000
v 0.000000 0.750000 0.500000
v -0.097545 0.500000 0.490393
v -0.097545 0.750000 0.490393
v -0.191342 0.500000 0.461940
v -0.191341 0.750000 0.461940
v -0.277785 0.500000 0.415735
v -0.277784 0.750000 0.415735
v -0.353554 0.500000 0.353553
v -0.353552 0.750000 0.353554
v -0.415735 0.500000 0.277785
v -0.415734 0.750000 0.277786
v -0.461940 0.500000 0.191341
v -0.461939 0.750000 0.191343
v -0.490393 0.500000 0.097545
v -0.490392 0.750000 0.097547
v -0.500000 0.500000 0.000000
v -0.500000 0.750000 0.000002
v -0.490393 0.500000 -0.097546
v -0.490393 0.750000 -0.097543
v -0.461940 0.500000 -0.191342
v -0.461941 0.750000 -0.191339
v -0.415734 0.500000 -0.277786
v -0.415736 0.750000 -0.277783
v -0.353553 0.500000 -0.353554
v -0.353555 0.750000 -0.353551
v -0.277785 0.500000 -0.415735
v -0.277788 0.750000 -0.415733
v -0.191341 0.500000 -0.461940
v -0.191345 0.750000 -0.461939
v -0.097544 0.500000 -0.490393
v -0.097549 0.750000 -0.490392
v -0.277785 0.500000 0.415735
v -0.277784 0.750000 0.415735
v -0.353552 0.750000 0.353554
v -0.353554 0.500000 0.353553
vt 0.00000000 0.00000000 0.00000000
vn 0.000000 -1.000000 -0.000000
vn -0.000000 1.000000 0.000000
vn -0.000000 -1.000000 -0.000001
vn 0.000000 1.000000 0.000001
vn -0.098015 0.000001 -0.995185
vn -0.098019 0.000002 -0.995185
vn -0.290287 -0.000001 -0.956940
vn -0.290285 -0.000002 -0.956940
vn -0.471407 0.000001 -0.881916
vn -0.471394 -0.000004 -0.881923
vn -0.634403 0.000004 -0.773002
vn -0.634392 -0.000001 -0.773011
vn -0.773011 0.000001 -0.634392
vn -0.773012 0.000002 -0.634392
vn -0.881922 0.000002 -0.471395
vn -0.881918 -0.000001 -0.471403
vn -0.956942 0.000004 -0.290278
vn -0.956939 -0.000000 -0.290288
vn -0.995185 0.000001 -0.098014
vn -0.995185 0.000001 -0.098013
vn -0.995184 0.000003 0.098024
vn -0.995185 -0.000001 0.098014
vn -0.956940 0.000001 0.290287
vn -0.956939 0.000002 0.290288
vn -0.881920 0.000002 0.471399
vn -0.881923 -0.000000 0.471394
vn -0.773007 0.000004 0.634398
vn -0.773011 0.000001 0.634392
vn -0.634392 0.000002 0.773012
vn -0.634393 0.000002 0.773010
vn -0.471399 0.000002 0.881920
vn -0.290288 -0.000000 0.956939
vn -0.290285 0.000001 0.956940
vn -0.098014 -0.000000 0.995185
vn -0.098013 -0.000000 0.995185
vn 0.098014 -0.000000 0.995185
vn 0.098013 -0.000000 0.995185
vn 0.290285 -0.000000 0.956940
vn 0.471399 -0.000000 0.881920
vn 0.634398 -0.000003 0.773006
vn 0.634392 -0.000000 0.773011
vn 0.773006 0.000001 0.634398
vn 0.773012 -0.000003 0.634392
vn 0.881920 -0.000000 0.471399
vn 0.881918 0.000002 0.471402
vn 0.956940 0.000003 0.290285
vn 0.956942 -0.000000 0.290278
vn 0.995185 -0.000000 0.098014
vn 0.995184 0.000004 0.098024
vn 0.995185 0.000000 -0.098014
vn 0.956940 0.000001 -0.290285
vn 0.881920 0.000002 -0.471399
vn 0.773006 -0.000003 -0.634398
vn 0.773016 0.000003 -0.634387
vn 0.634398 0.000001 -0.773006
vn 0.634392 -0.000002 -0.773012
vn 0.471399 0.000002 -0.881920
vn 0.290285 0.000003 -0.956940
vn 0.098014 -0.000000 -0.995185
vn 0.098024 0.000004 -0.995184
vn -0.634388 0.000000 0.773003
usemtl 
s off
f 1/1/1 2/1/1 3/1/1
f 4/1/2 5/1/2 6/1/2
f 1/1/1 3/1/1 7/1/1
f 4/1/2 8/1/2 5/1/2
f 1/1/1 7/1/1 9/1/1
f 4/1/2 10/1/2 8/1/2
f 1/1/1 9/1/1 11/1/1
f 4/1/2 12/1/2 10/1/2
f 1/1/1 11/1/1 13/1/1
f 4/1/2 14/1/2 12/1/2
f 1/1/1 13/1/1 15/1/1
f 4/1/2 16/1/2 14/1/2
f 1/1/3 15/1/3 17/1/3
f 4/1/4 18/1/4 16/1/4
f 1/1/1 17/1/1 19/1/1
f 4/1/2 20/1/2 18/1/2
f 1/1/1 19/1/1 21/1/1
f 4/1/2 22/1/2 20/1/2
f 1/1/1 21/1/1 23/1/1
f 4/1/4 24/1/4 22/1/4
f 1/1/1 23/1/1 25/1/1
f 4/1/2 26/1/2 24/1/2
f 1/1/1 25/1/1 27/1/1
f 4/1/2 28/1/2 26/1/2
f 1/1/1 27/1/1 29/1/1
f 4/1/2 30/1/2 28/1/2
f 1/1/1 29/1/1 31/1/1
f 4/1/2 32/1/2 30/1/2
f 1/1/1 31/1/1 33/1/1
f 4/1/2 34/1/2 32/1/2
f 1/1/1 33/1/1 35/1/1
f 4/1/2 36/1/2 34/1/2
f 1/1/1 35/1/1 37/1/1
f 4/1/2 38/1/2 36/1/2
f 1/1/1 37/1/1 39/1/1
f 4/1/2 40/1/2 38/1/2
f 1/1/1 39/1/1 41/1/1
f 4/1/2 42/1/2 40/1/2
f 1/1/1 41/1/1 43/1/1
f 4/1/2 44/1/2 42/1/2
f 1/1/1 43/1/1 45/1/1
f 4/1/2 46/1/2 44/1/2
f 1/1/1 45/1/1 47/1/1
f 4/1/2 48/1/2 46/1/2
f 1/1/1 47/1/1 49/1/1
f 4/1/4 50/1/4 48/1/4
f 1/1/1 49/1/1 51/1/1
f 4/1/2 52/1/2 50/1/2
f 1/1/1 51/1/1 53/1/1
f 4/1/2 54/1/2 52/1/2
f 1/1/3 53/1/3 55/1/3
f 4/1/4 56/1/4 54/1/4
f 1/1/1 55/1/1 57/1/1
f 4/1/2 58/1/2 56/1/2
f 1/1/1 57/1/1 59/1/1
f 4/1/2 60/1/2 58/1/2
f 1/1/1 59/1/1 61/1/1
f 4/1/2 62/1/2 60/1/2
f 1/1/1 61/1/1 63/1/1
f 4/1/2 64/1/2 62/1/2
f 1/1/1 63/1/1 65/1/1
f 4/1/2 66/1/2 64/1/2
f 2/1/1 1/1/1 65/1/1
f 4/1/2 6/1/2 66/1/2
f 6/1/5 2/1/5 65/1/5
f 6/1/6 65/1/6 66/1/6
f 63/1/7 64/1/7 66/1/7
f 63/1/8 66/1/8 65/1/8
f 61/1/9 62/1/9 64/1/9
f 61/1/10 64/1/10 63/1/10
f 59/1/11 60/1/11 62/1/11
f 59/1/12 62/1/12 61/1/12
f 57/1/13 58/1/13 60/1/13
f 57/1/14 60/1/14 59/1/14
f 55/1/15 56/1/15 58/1/15
f 55/1/16 58/1/16 57/1/16
f 53/1/17 54/1/17 56/1/17
f 53/1/18 56/1/18 55/1/18
f 51/1/19 52/1/19 54/1/19
f 51/1/20 54/1/20 53/1/20
f 49/1/21 50/1/21 52/1/21
f 49/1/22 52/1/22 51/1/22
f 47/1/23 48/1/23 50/1/23
f 47/1/24 50/1/24 49/1/24
f 45/1/25 46/1/25 48/1/25
f 45/1/26 48/1/26 47/1/26
f 43/1/27 44/1/27 46/1/27
f 43/1/28 46/1/28 45/1/28
f 41/1/29 42/1/29 44/1/29
f 41/1/30 44/1/30 43/1/30
f 39/1/31 40/1/31 42/1/31
f 39/1/31 42/1/31 41/1/31
f 37/1/32 38/1/32 40/1/32
f 37/1/33 40/1/33 39/1/33
f 35/1/34 36/1/34 38/1/34
f 35/1/35 38/1/35 37/1/35
f 33/1/36 34/1/36 36/1/36
f 33/1/37 36/1/37 35/1/37
f 31/1/38 32/1/38 34/1/38
f 31/1/38 34/1/38 33/1/38
f 29/1/39 30/1/39 32/1/39
f 29/1/39 32/1/39 31/1/39
f 27/1/40 28/1/40 29/1/40
f 28/1/41 30/1/41 29/1/41
f 25/1/42 26/1/42 27/1/42
f 26/1/43 28/1/43 27/1/43
f 23/1/44 24/1/44 25/1/44
f 24/1/45 26/1/45 25/1/45
f 21/1/46 22/1/46 23/1/46
f 22/1/47 24/1/47 23/1/47
f 19/1/48 20/1/48 21/1/48
f 20/1/49 22/1/49 21/1/49
f 17/1/50 18/1/50 19/1/50
f 18/1/50 20/1/50 19/1/50
f 15/1/51 16/1/51 17/1/51
f 16/1/51 18/1/51 17/1/51
f 13/1/52 14/1/52 15/1/52
f 14/1/52 16/1/52 15/1/52
f 11/1/53 12/1/53 13/1/53
f 12/1/54 14/1/54 13/1/54
f 9/1/55 10/1/55 11/1/55
f 10/1/56 12/1/56 11/1/56
f 7/1/57 8/1/57 9/1/57
f 8/1/57 10/1/57 9/1/57
f 3/1/58 5/1/58 7/1/58
f 5/1/58 8/1/58 7/1/58
f 2/1/59 6/1/59 3/1/59
f 6/1/60 5/1/60 3/1/60
s 1
f 67/1/61 68/1/61 69/1/61
f 67/1/61 69/1/61 70/1/61
