# Exported from Wings 3D 1.2
mtllib wall.mtl
o cube1
#8 vertices, 12 faces
v -0.50000000 0.0000000e+0 0.50000000
v -0.50000000 0.70000000 0.50000000
v 0.50000000 0.70000000 0.50000000
v 0.50000000 0.0000000e+0 0.50000000
v -0.50000000 0.0000000e+0 -0.50000000
v -0.50000000 0.70000000 -0.50000000
v 0.50000000 0.70000000 -0.50000000
v 0.50000000 0.0000000e+0 -0.50000000
vt 0.00000000 0.00000000 0.00000000
vn 1.00000000 0.00000000 0.00000000
vn -1.00000000 0.00000000 0.00000000
vn 0.00000000 1.00000000 0.00000000
vn 0.00000000 -1.00000000 0.00000000
vn 0.00000000 0.00000000 1.00000000
vn 0.00000000 0.00000000 -1.00000000
g cube1_default
usemtl default
s 1
f 1/1/5 3/1/5 2/1/5
f 1/1/2 6/1/2 5/1/2
f 1/1/4 8/1/4 4/1/4
f 2/1/2 6/1/2 1/1/2
f 3/1/3 6/1/3 2/1/3
f 3/1/1 8/1/1 7/1/1
f 4/1/5 3/1/5 1/1/5
f 4/1/1 8/1/1 3/1/1
f 5/1/4 8/1/4 1/1/4
f 6/1/6 8/1/6 5/1/6
f 7/1/3 6/1/3 3/1/3
f 7/1/6 8/1/6 6/1/6
